<?xml version="1.0" encoding="UTF-8"?>
<!DOCTYPE svg PUBLIC "-//W3C//DTD SVG 1.1//EN" "http://www.w3.org/Graphics/SVG/1.1/DTD/svg11.dtd">
<svg version="1.1" xmlns="http://www.w3.org/2000/svg" xmlns:xlink="http://www.w3.org/1999/xlink" x="0" y="0" width="40" height="40" viewBox="0, 0, 100, 100">
<g id="kianggo_grey_hc_dark_letterpress">
  <g id="logo" transform="translate(50, 50) scale(0.08732494124290521) translate(-1063.0187770084367, -962.4630046092316)">
    <path d="M0 0 C4.10132616 0.00460099 8.20263665 -0.0024959 12.30395949 -0.00795984 C20.29697983 -0.01677141 28.28996225 -0.01497026 36.28298397 -0.00913456 C42.77879361 -0.0045906 49.27459273 -0.00401686 55.7704035 -0.00618219 C57.16480307 -0.00664189 57.16480307 -0.00664189 58.58737231 -0.00711088 C60.47647711 -0.0077504 62.36558191 -0.00839883 64.25468671 -0.00905606 C81.88912029 -0.01473376 99.52353294 -0.0082391 117.15796309 0.00254467 C132.27614783 0.01150308 147.39430189 0.00990439 162.5124861 0.00070715 C180.11652547 -0.00999751 197.72054667 -0.01421106 215.32458884 -0.00806832 C217.20097693 -0.00743127 219.07736502 -0.00680253 220.95375311 -0.00618219 C221.87675788 -0.00587364 222.79976266 -0.00556509 223.75073727 -0.00524719 C230.24446577 -0.00352272 236.73818269 -0.00642948 243.23190939 -0.0111413 C251.13584864 -0.01675118 259.03974816 -0.01523035 266.94368286 -0.00457981 C270.97312514 0.00067153 275.00250119 0.0027424 279.03194296 -0.00387812 C282.72177049 -0.00984918 286.41147052 -0.00654355 290.10128652 0.00407699 C292.06359336 0.00735925 294.02590908 0.00085113 295.98820657 -0.00603747 C312.14165943 0.06569886 312.14165943 0.06569886 317.6621443 5.26144934 C318.51099196 6.03488684 318.51099196 6.03488684 319.37698805 6.82394934 C322.15938891 9.79184358 322.20254883 12.6907439 322.10184157 16.60568762 C320.76678135 26.00554847 312.28069702 33.17605967 305.7871443 39.38644934 C300.38466031 44.62449246 295.08903005 49.83753631 290.19705641 55.55978918 C288.38798916 57.65052019 286.46109211 59.58960146 284.4746443 61.51144934 C282.47995027 63.44231316 280.73989417 65.2402772 279.1152693 67.49582434 C278.65636305 68.07848059 278.1974568 68.66113684 277.7246443 69.26144934 C277.0646443 69.26144934 276.4046443 69.26144934 275.7246443 69.26144934 C275.7246443 69.92144934 275.7246443 70.58144934 275.7246443 71.26144934 C275.0646443 71.26144934 274.4046443 71.26144934 273.7246443 71.26144934 C273.7246443 71.92144934 273.7246443 72.58144934 273.7246443 73.26144934 C273.0646443 73.26144934 272.4046443 73.26144934 271.7246443 73.26144934 C271.46650954 73.84628088 271.20837477 74.43111242 270.94241774 75.03366613 C269.62606148 77.44179583 268.2036716 78.99576013 266.2402693 80.90598059 C265.20773024 81.9220841 265.20773024 81.9220841 264.1543318 82.95871496 C263.43503493 83.65674231 262.71573805 84.35476965 261.9746443 85.07394934 C257.52794386 89.41070389 253.17622359 93.7219087 249.23538649 98.52975988 C247.67565573 100.31760252 246.02725439 101.98979376 244.34125197 103.65810156 C242.30820611 105.67447178 240.2928674 107.70799131 238.27664626 109.74118567 C234.06230409 113.98759965 229.8435092 118.22953705 225.62144625 122.46827173 C223.07934534 125.02078281 220.53914271 127.57512456 218.00320876 130.13376379 C215.53155281 132.62739054 213.05482696 135.11588265 210.57473242 137.6011157 C209.19231993 138.98892273 207.81500456 140.38180124 206.43785536 141.7748313 C199.16425599 149.04970236 191.68645456 156.29263258 182.2871443 160.69894934 C181.29843337 161.17203527 180.30972243 161.64512121 179.29105055 162.13254309 C174.84380732 164.08878859 171.1695642 164.40671111 166.38817275 164.39948034 C165.25816644 164.40371226 165.25816644 164.40371226 164.10533172 164.40802968 C161.57258248 164.41638387 159.03987691 164.41771474 156.50711501 164.41916418 C154.69341848 164.4238325 152.87972313 164.42897609 151.06602919 164.4345603 C147.15208288 164.44585258 143.23814424 164.45428198 139.32418692 164.46067953 C133.11301418 164.4713776 126.90189561 164.49163403 120.69075453 164.51379919 C103.02474934 164.57564085 85.35874555 164.62950705 67.69266188 164.66281652 C57.94137384 164.68128331 48.19017502 164.71037964 38.43895274 164.75082123 C33.28838059 164.77171429 28.1379201 164.78732277 22.98730338 164.78962851 C-7.76205653 164.77011547 -7.76205653 164.77011547 -38.2753557 168.26144934 C-39.60936325 168.47637316 -40.9434385 168.69087746 -42.27759874 168.90485144 C-61.88156612 172.2535538 -80.64013908 181.7559061 -96.8378557 193.01144934 C-97.47368577 193.45198645 -98.10951585 193.89252356 -98.76461351 194.34641027 C-112.35318538 204.08749256 -124.17205507 215.8669534 -135.92769945 227.68332434 C-137.48239157 229.23921246 -139.03745784 230.79472681 -140.59287584 232.34988928 C-143.82551823 235.58408256 -147.0548153 238.82156473 -150.28145921 242.06174231 C-154.40047472 246.19782414 -158.52612034 250.32721464 -162.654055 254.45439291 C-165.85521407 257.65582472 -169.05375465 260.85986186 -172.25143182 264.06477118 C-173.77177169 265.58827262 -175.2926998 267.11118729 -176.81424844 268.6334815 C-178.9404408 270.76185989 -181.06329962 272.89350892 -183.18526781 275.02609777 C-183.80200868 275.64238546 -184.41874956 276.25867315 -185.05417955 276.89363623 C-188.75394601 280.62029358 -192.26411477 284.46494381 -195.68399465 288.4503417 C-198.14508731 291.25127976 -200.79316262 293.84868911 -203.4628557 296.44894934 C-206.25394687 299.16911062 -208.96096448 301.86846032 -211.4003557 304.91769934 C-213.1630428 307.12105822 -214.9143146 308.78996347 -217.0878557 310.57394934 C-220.51086331 313.49986577 -223.39956789 316.60661705 -226.30269945 320.03879309 C-228.64123631 322.67369898 -231.13145833 325.11110532 -233.6503557 327.57394934 C-245.47791593 339.245564 -256.4196051 351.61266413 -256.7128557 368.94894934 C-256.73092837 381.91006941 -250.71205419 391.87866478 -241.9628557 401.13644934 C-240.97247707 402.19820807 -239.98289158 403.26070717 -238.9941057 404.32394934 C-238.52101976 404.83183996 -238.04793382 405.33973059 -237.56051195 405.86301184 C-235.98074648 407.58202715 -234.4694294 409.35315801 -232.9628557 411.13644934 C-229.59159551 415.03829526 -225.93577496 418.63431526 -222.2753557 422.26144934 C-218.02894467 426.4692466 -213.88516801 430.68540145 -210.0097307 435.24191809 C-202.13896771 444.40674796 -193.68993449 453.09912953 -185.4003557 461.88254309 C-182.70358026 464.74120123 -180.0160326 467.60801731 -177.3378557 470.48410559 C-171.45536241 476.79846488 -165.55021608 483.08091044 -159.4628557 489.19894934 C-158.96495531 489.70144201 -158.46705492 490.20393469 -157.95406663 490.72165442 C-155.36127529 493.31913661 -155.36127529 493.31913661 -152.2753557 495.26144934 C-152.2753557 495.92144934 -152.2753557 496.58144934 -152.2753557 497.26144934 C-151.70687913 497.51281652 -151.13840257 497.76418371 -150.55269945 498.02316809 C-147.96151296 499.43209796 -146.04758243 501.11821418 -143.8378557 503.07394934 C-121.25161181 521.77017258 -94.74556327 532.57430969 -66.2753557 538.26144934 C-65.22734788 538.47801184 -64.17934007 538.69457434 -63.09957445 538.91769934 C-45.43212578 542.24103685 -27.01199653 541.47788736 -9.11178148 541.50168371 C-6.32193324 541.50604512 -3.53239831 541.51987688 -0.74264085 541.54269934 C27.09996693 541.76552518 54.9402941 540.46511317 81.7246443 532.26144934 C82.67726149 531.99848059 83.62987868 531.73551184 84.61136305 531.46457434 C98.89251926 527.24197306 112.979122 519.60217457 123.7246443 509.26144934 C124.4362068 508.57824621 125.1477693 507.89504309 125.8808943 507.19113684 C137.07556225 495.52284833 143.76109176 480.57292999 144.1621443 464.38644934 C143.86292519 455.06239563 141.5192475 448.77872179 134.7246443 442.26144934 C127.42476849 436.69049148 118.49997215 436.97323589 109.74417555 437.00607824 C108.56592207 437.00245779 107.3876686 436.99883734 106.17371047 436.99510717 C103.62562262 436.98823502 101.07752012 436.98570363 98.52942336 436.98705435 C94.49388659 436.98802221 90.45861744 436.97547074 86.42313063 436.95807409 C74.9530232 436.91121287 63.48292928 436.88710759 52.01273024 436.88058996 C45.66639628 436.8768318 39.32025954 436.85874706 32.97401011 436.8254956 C29.62243332 436.80864869 26.27152624 436.80178322 22.91986525 436.80843496 C19.18131227 436.81550851 15.44358776 436.79821666 11.70511305 436.77560949 C10.05592375 436.78786818 10.05592375 436.78786818 8.3734175 436.80037451 C0.72365578 436.71818885 -4.56984556 435.45051207 -10.5175432 430.33176184 C-11.05637132 429.68980871 -11.59519945 429.04785559 -12.1503557 428.38644934 C-12.70465257 427.74965246 -13.25894945 427.11285559 -13.8300432 426.45676184 C-17.41631871 421.00950012 -17.57281333 415.5863814 -17.56588304 409.2936759 C-17.57260026 408.41153418 -17.57931749 407.52939245 -17.58623827 406.62051916 C-17.60518108 403.71431301 -17.60914081 400.80833833 -17.6112932 397.90207434 C-17.61772449 395.87194237 -17.6244531 393.84181132 -17.63146532 391.81168127 C-17.64342937 387.55826181 -17.64714711 383.3049235 -17.64596117 379.0514884 C-17.64575821 373.62004987 -17.67304011 368.18913595 -17.70750558 362.75782156 C-17.72982292 358.56430216 -17.7337972 354.37090795 -17.73274171 350.17733526 C-17.73509117 348.17599956 -17.74387747 346.17466007 -17.75940645 344.17338324 C-17.85283531 330.88730023 -17.74162047 320.09552876 -8.1269182 309.94894934 C0.23320922 302.32959271 10.11906335 301.96457082 20.86342299 302.00075293 C22.07263979 301.99692738 23.2818566 301.99310183 24.52771634 301.98916036 C27.86720775 301.98065279 31.20647796 301.98105416 34.54596281 301.98534095 C38.15408336 301.98781382 41.76217834 301.97878711 45.37028944 301.97130346 C52.43217665 301.95857036 59.49402581 301.95676101 66.55592256 301.95910373 C72.29698253 301.96088846 78.03803098 301.95913391 83.77908957 301.95487928 C85.00582632 301.9539865 85.00582632 301.9539865 86.25734564 301.95307568 C87.91887378 301.9518639 89.58040193 301.95064977 91.24193007 301.9494333 C106.8147091 301.93856329 122.38746645 301.94071781 137.96024669 301.94681815 C152.1994431 301.95198783 166.4385711 301.94072957 180.67775398 301.92171993 C195.30832773 301.90233789 209.93886913 301.89408611 224.5694558 301.89784318 C232.77952768 301.89975454 240.98954133 301.89727393 249.19960272 301.88312864 C256.18826464 301.87120927 263.17683247 301.86981624 270.16549569 301.88191881 C273.72917134 301.88780337 277.29267495 301.88891873 280.8563391 301.87691641 C284.7239384 301.86404207 288.59127768 301.87453202 292.45888197 301.88722754 C293.57893014 301.87985325 294.6989783 301.87247897 295.85296732 301.86488122 C303.47373554 301.91748243 309.91128168 302.92143137 316.4746443 306.94894934 C335.15715086 326.15041441 330.23196534 370.9893421 330.11575758 396.41696692 C330.09862043 400.20121885 330.10888268 403.98483934 330.12608683 407.76907015 C330.25782124 442.05330692 327.75445168 476.58751141 316.7246443 509.26144934 C316.44185622 510.10723547 316.15906813 510.9530216 315.86771071 511.82443762 C313.90241843 517.66758441 311.84221266 523.47192735 309.7246443 529.26144934 C309.48810133 529.91919348 309.25155837 530.57693762 309.00784743 531.2546134 C300.08298139 555.86913524 285.86177579 579.61541373 269.06790602 599.65793371 C267.70053724 601.29022709 266.35520807 602.93915655 265.00980055 604.58957434 C253.64197191 618.35374678 240.96681745 631.46389481 226.7246443 642.26144934 C225.90351149 642.9227384 225.08237868 643.58402746 224.23636305 644.26535559 C201.14396287 662.41177136 174.22050514 676.71144199 146.2012068 685.47873449 C143.62391563 686.29328452 141.06596273 687.15612426 138.5058943 688.02316809 C101.96515686 700.09664609 63.26745269 703.41710354 25.0137068 703.42941809 C22.63263361 703.43264174 20.25156061 703.43600659 17.87048781 703.43950415 C12.89657568 703.44546033 7.92268083 703.44734779 2.9487654 703.44675207 C-3.34829575 703.4466509 -9.64524301 703.46027216 -15.94227731 703.47752428 C-20.85870412 703.48878053 -25.77510462 703.49066712 -30.69154298 703.49014235 C-33.00898826 703.49130327 -35.32643466 703.49561525 -37.6438669 703.50347471 C-59.88658883 703.57182745 -81.98849015 702.50485213 -103.9003557 698.51144934 C-104.99692995 698.31736486 -104.99692995 698.31736486 -106.11565721 698.11935949 C-131.74512198 693.5791703 -156.08378633 686.7188162 -179.9316057 676.28049231 C-182.21561214 675.28742534 -184.50925234 674.32082317 -186.8066057 673.35910559 C-197.385883 668.87124174 -207.21353373 663.46888015 -217.06246507 657.56149817 C-219.35087977 656.21707978 -221.66814437 654.93873394 -223.99801195 653.66769934 C-227.39236322 651.79486501 -230.54289341 649.77709537 -233.6503557 647.44894934 C-237.74280312 644.39771005 -237.74280312 644.39771005 -241.8925432 641.42551184 C-250.17466581 635.60099237 -257.74914298 629.01744306 -265.2753557 622.26144934 C-266.141364 621.48519201 -267.0073723 620.70893469 -267.89962327 619.90915442 C-275.54713125 612.98097599 -282.90241025 605.7892367 -290.18624437 598.48093176 C-292.09957763 596.56219429 -294.01826074 594.64892179 -295.93746507 592.73605871 C-301.37900876 587.29715642 -306.76059992 581.87369152 -311.74679124 576.00827551 C-314.58762044 572.76180803 -317.69674875 569.7801474 -320.7753557 566.76144934 C-325.23294896 562.35158307 -329.57220049 557.9342793 -333.61519945 553.13644934 C-335.68943564 550.79378258 -337.91248282 548.63557322 -340.1503557 546.44894934 C-343.5639379 543.08163557 -346.66865216 539.64058695 -349.6503557 535.88644934 C-353.43203517 531.14593978 -357.49762558 526.87897733 -361.85103929 522.67209387 C-365.2457358 519.37462017 -368.36843217 515.90919606 -371.46334398 512.32956457 C-374.43877016 508.93360187 -377.54781111 505.66591456 -380.6503557 502.38644934 C-385.53592929 497.19926758 -390.3813056 491.98662346 -395.11519945 486.65988684 C-397.11012165 484.44490992 -399.15114869 482.27996821 -401.20040452 480.11545324 C-425.46529834 454.24940948 -443.29726787 420.74261931 -443.4784807 384.67160559 C-443.48703081 383.31741774 -443.48703081 383.31741774 -443.49575365 381.93587255 C-443.50515457 380.03065661 -443.51171797 378.12542477 -443.51559007 376.22018957 C-443.52522336 373.36319562 -443.55626404 370.50694469 -443.5878557 367.65012121 C-443.67741226 352.41467324 -442.13914347 338.1696527 -437.0878557 323.69894934 C-436.78452318 322.81819738 -436.48119066 321.93744543 -436.16866624 321.03000402 C-429.54312007 302.35324091 -418.83610683 287.17218323 -406.6503557 271.69894934 C-405.88706956 270.72429724 -405.88706956 270.72429724 -405.10836351 269.7299552 C-403.87898857 268.20034999 -402.58307137 266.72464261 -401.2753557 265.26144934 C-400.6153557 265.26144934 -399.9553557 265.26144934 -399.2753557 265.26144934 C-399.0074724 264.66686926 -398.7395891 264.07228918 -398.46358812 263.45969152 C-397.26324897 261.23905177 -396.06832572 259.83708864 -394.26363695 258.08957434 C-393.67002367 257.50691809 -393.07641038 256.92426184 -392.46480882 256.32394934 C-391.84541429 255.72582434 -391.22601976 255.12769934 -390.5878557 254.51144934 C-386.87616382 250.90740051 -383.25376777 247.29733119 -379.88082445 243.37082434 C-375.20159499 237.94178985 -370.05453638 232.99399948 -364.9472307 227.97238684 C-364.18926195 227.22215246 -363.4312932 226.47191809 -362.6503557 225.69894934 C-361.97746507 225.03766027 -361.30457445 224.37637121 -360.6112932 223.69504309 C-358.7674404 221.77410615 -357.04622608 219.83192363 -355.32174242 217.80783606 C-350.48794753 212.2480943 -345.23417312 207.10902868 -340.00964296 201.9205718 C-338.12450374 200.04832766 -336.24262188 198.1728619 -334.36150682 196.29657507 C-330.37727812 192.32369521 -326.38909648 188.35479839 -322.4003557 184.38644934 C-317.75510142 179.76480675 -313.11148716 175.14154034 -308.47203767 170.51407003 C-306.61660566 168.66512608 -304.75819359 166.81921318 -302.89965379 164.97339392 C-301.76969563 163.84706591 -300.6398763 162.7205986 -299.51021898 161.59396887 C-298.73261972 160.82411909 -298.73261972 160.82411909 -297.93931139 160.03871679 C-295.27148238 157.40403186 -295.27148238 157.40403186 -293.2753557 154.26144934 C-292.6153557 154.26144934 -291.9553557 154.26144934 -291.2753557 154.26144934 C-291.06924669 153.73035055 -290.86313768 153.19925177 -290.65078294 152.65205908 C-288.70702 149.27363347 -286.01686747 146.73349676 -283.26851976 144.01169348 C-282.65363695 143.39491232 -282.03875413 142.77813116 -281.40523851 142.14265966 C-279.37200572 140.10572364 -277.33166222 138.07607703 -275.2909807 136.04660559 C-273.87295235 134.62976984 -272.45529401 133.2125637 -271.03798997 131.79500341 C-268.06518241 128.82376016 -265.08904548 125.85590653 -262.11031663 122.89059973 C-258.30114018 119.09837415 -254.49854018 115.29963859 -250.69821107 111.49854898 C-247.7696316 108.57024219 -244.83844695 105.64455496 -241.90639055 102.7197299 C-240.50403851 101.3205503 -239.10228273 99.92077282 -237.70114458 98.52037764 C-235.73651472 96.5579287 -233.76861822 94.59881515 -231.79976976 92.64059973 C-231.22603624 92.06641302 -230.65230272 91.49222631 -230.06118333 90.90064001 C-226.61106009 87.47757267 -223.03437971 84.34178045 -219.2753557 81.26144934 C-216.98475664 79.0311292 -214.74990111 76.75625624 -212.53707445 74.44894934 C-208.31233779 70.1141494 -203.92367828 66.23097801 -199.14644945 62.51535559 C-197.04349196 60.86446243 -194.98341848 59.19267258 -192.93551195 57.47629309 C-164.76837163 34.04135496 -129.67092915 18.08537605 -94.2753557 9.26144934 C-93.12245042 8.97213537 -93.12245042 8.97213537 -91.94625413 8.67697668 C-61.69404249 1.22117807 -31.02859549 -0.05170319 0 0 Z " transform="translate(1220.2753556966782, 610.7385506629944)" fill="#3C3C3C"/>
    <path d="M0 0 C1.08908157 -0.00571014 2.17816315 -0.01142029 3.30024719 -0.01730347 C5.07007462 -0.01898026 5.07007462 -0.01898026 6.87565613 -0.02069092 C8.75723167 -0.02813828 8.75723167 -0.02813828 10.67681885 -0.03573608 C14.10672608 -0.04781046 17.53657263 -0.05529365 20.96649384 -0.05974674 C23.11306851 -0.06268626 25.25963794 -0.06679266 27.40620995 -0.07125092 C34.13326707 -0.08490986 40.86031211 -0.09458475 47.58738214 -0.09845281 C55.33282818 -0.10293196 63.0780976 -0.12047985 70.82348996 -0.1494534 C76.82455483 -0.17111704 82.82557016 -0.18115955 88.82667369 -0.18249393 C92.40454619 -0.18353846 95.98225232 -0.18937109 99.56008339 -0.20731354 C103.55470515 -0.22695838 107.54896002 -0.22248668 111.54362488 -0.21600342 C112.71743713 -0.2252182 113.89124939 -0.23443298 115.10063171 -0.243927 C124.9873544 -0.1937597 132.3760055 1.35871425 139.6771698 8.23809814 C144.38339804 13.42346727 146.5246089 18.82902257 146.5348348 25.79124689 C146.53861945 26.72888254 146.54240409 27.66651819 146.54630342 28.63256705 C146.54539149 29.66145336 146.54447956 30.69033967 146.54354 31.75040436 C146.54796714 33.39809903 146.54796714 33.39809903 146.55248371 35.07908046 C146.5612054 38.79180222 146.56275814 42.50449294 146.56436157 46.21722412 C146.56909045 48.89324597 146.57420544 51.56926459 146.57977921 54.24528456 C146.59260292 60.8491502 146.59997978 67.45301193 146.60567799 74.05688713 C146.61273329 81.96473181 146.62549148 89.87256477 146.63822719 97.78040197 C146.67008966 117.80398654 146.68991545 137.82757888 146.70751271 157.85118032 C146.7122803 163.27417151 146.71728901 168.69716247 146.72231793 174.12015343 C146.75336367 207.77864809 146.779983 241.43714474 146.79673672 275.09564972 C146.80067399 282.89476017 146.80468583 290.69387058 146.8087616 298.49298096 C146.80926326 299.46192805 146.80976493 300.43087515 146.8102818 301.42918428 C146.82669992 332.84478959 146.86515652 364.26031702 146.9160487 395.67588402 C146.96826773 427.96935391 147.00105089 460.26278233 147.00831425 492.5562953 C147.00934285 497.11731846 147.01057917 501.67834155 147.01193428 506.23936462 C147.01219232 507.13701736 147.01245036 508.03467009 147.01271621 508.95952443 C147.01741149 523.40658854 147.0423476 537.85355002 147.07468571 552.30057571 C147.1067179 566.82269278 147.11669384 581.34469425 147.10425376 595.86684245 C147.09751635 604.49390552 147.10745513 613.12057159 147.14138076 621.74757263 C147.16239885 627.51329017 147.16153704 633.27873912 147.14304735 639.04446456 C147.13313621 642.32793338 147.13589802 645.61049626 147.15871017 648.89392263 C147.26332903 664.92371922 147.18459212 675.8238649 136.0287323 688.14044189 C128.09951275 695.98056909 120.67105352 696.72985359 109.98625183 696.67388916 C108.64169879 696.68095765 107.2971537 696.68970656 105.95262146 696.69999695 C102.32017653 696.72239951 98.6881692 696.71957254 95.05568171 696.71067548 C92.01415139 696.70554536 88.97270186 696.71287466 85.93117988 696.72014755 C78.75057138 696.73711826 71.57017553 696.73361024 64.38957214 696.71685791 C57.00262938 696.69994604 49.61627797 696.71576421 42.2293998 696.74808079 C35.86815644 696.77484733 29.50709636 696.78203353 23.14580238 696.77356571 C19.35491743 696.76865613 15.5643879 696.77074402 11.77354813 696.79135323 C8.20602291 696.8098217 4.63934217 696.80361792 1.07186127 696.77915382 C-0.84652535 696.77182606 -2.76495772 696.78891554 -4.68327332 696.80697632 C-12.48491003 696.72211572 -17.995407 695.33889774 -24.5962677 691.14044189 C-25.4676151 690.58817098 -25.4676151 690.58817098 -26.35656548 690.02474308 C-32.57229698 685.48247951 -36.53033491 677.05319474 -38.13492846 669.65782082 C-38.75354742 664.94129744 -38.73613466 660.30184444 -38.72769547 655.54987907 C-38.7297481 654.47781062 -38.73180073 653.40574217 -38.73391557 652.3011868 C-38.73959321 648.69029187 -38.73812737 645.07943499 -38.73670959 641.46853638 C-38.73929279 638.86091128 -38.74230582 636.25328658 -38.745713 633.64566243 C-38.75328959 627.21872948 -38.75548588 620.79180484 -38.75604205 614.3648679 C-38.75695602 606.6671859 -38.76362455 598.96951159 -38.77038888 591.2718329 C-38.78644758 572.66708449 -38.79235194 554.0623369 -38.79713762 535.4575828 C-38.79947362 526.65632525 -38.80307627 517.85506836 -38.806833 509.05381132 C-38.81966817 478.92605684 -38.83038756 448.79830273 -38.8338356 418.67054558 C-38.83405723 416.77936532 -38.83427902 414.88818507 -38.83450095 412.99700481 C-38.83472159 411.1012594 -38.83494208 409.20551398 -38.8351624 407.30976856 C-38.83560495 403.50658154 -38.83605207 399.70339453 -38.83650208 395.90020752 C-38.83661147 394.95723852 -38.83672086 394.01426952 -38.83683356 393.04272571 C-38.84046442 362.46504506 -38.85638571 331.88738811 -38.87969244 301.30971654 C-38.90428885 268.98092387 -38.91800835 236.65214475 -38.91920352 204.32334244 C-38.91937497 200.77441096 -38.9195904 197.22547948 -38.91983795 193.676548 C-38.91989372 192.80270183 -38.91994949 191.92885565 -38.92000695 191.02852929 C-38.92115753 176.96656218 -38.93218014 162.9046194 -38.94672501 148.84266051 C-38.96109186 134.70839884 -38.96432592 120.57416836 -38.95628503 106.4399014 C-38.95182973 98.04400876 -38.95568542 89.64821681 -38.97152354 81.2523374 C-38.9824261 74.98133047 -38.97762945 68.7104273 -38.96675166 62.43942238 C-38.96478928 59.90373742 -38.96789799 57.36804238 -38.97659603 54.83237158 C-38.98767764 51.38342428 -38.98020673 47.9349849 -38.9682045 44.48605156 C-38.97579969 43.50374014 -38.98339489 42.52142873 -38.99122024 41.5093503 C-38.90421627 29.91251904 -36.40258901 19.90104296 -28.5962677 11.14044189 C-20.54197161 3.52905007 -11.00478214 0.03477158 0 0 Z " transform="translate(609.5962677001953, 610.8595581054688)" fill="#3C3C3C"/>
  </g>
  </g>
</svg>
